<svg xmlns="http://www.w3.org/2000/svg"  viewBox="0 0 24 24" width="24px" height="24px"><path d="M 16.507812 1.0136719 C 15.951812 1.0136719 15.387844 1.1169375 14.839844 1.3359375 L 4.8496094 5.5019531 C 2.5416094 6.4239531 1.4178438 9.0416094 2.3398438 11.349609 C 2.7398437 12.351609 3.4707031 13.112656 4.3457031 13.597656 C 2.3927031 14.680656 1.4898438 17.055594 2.3398438 19.183594 C 3.0428437 20.943594 4.7335312 22.013672 6.5195312 22.013672 C 7.0755313 22.013672 7.6414531 21.910406 8.1894531 21.691406 L 18.179688 17.525391 C 20.487687 16.603391 21.6105 13.983781 20.6875 11.675781 C 20.2875 10.673781 19.556641 9.9146875 18.681641 9.4296875 C 20.634641 8.3466875 21.5385 5.97175 20.6875 3.84375 C 19.9845 2.08475 18.293813 1.0136719 16.507812 1.0136719 z M 16.507812 2.5136719 C 17.742812 2.5136719 18.836922 3.2533906 19.294922 4.4003906 C 19.849922 5.7883906 19.274078 7.3881406 17.955078 8.1191406 C 17.478078 8.3831406 17.181641 8.8866406 17.181641 9.4316406 C 17.181641 9.9766406 17.478078 10.478187 17.955078 10.742188 C 18.390078 10.983187 18.976922 11.439375 19.294922 12.234375 C 19.908922 13.770375 19.158563 15.519578 17.601562 16.142578 L 7.6308594 20.300781 C 7.2748594 20.442781 6.8995313 20.513672 6.5195312 20.513672 C 5.2845312 20.513672 4.1904219 19.773953 3.7324219 18.626953 C 3.1774219 17.238953 3.7532656 15.639203 5.0722656 14.908203 C 5.5492656 14.644203 5.8457031 14.140703 5.8457031 13.595703 C 5.8457031 13.050703 5.5492656 12.547203 5.0722656 12.283203 C 4.6372656 12.042203 4.052375 11.587969 3.734375 10.792969 C 3.437375 10.048969 3.4476719 9.2330938 3.7636719 8.4960938 C 4.0796719 7.7600938 4.6637344 7.1907656 5.4277344 6.8847656 L 15.396484 2.7265625 C 15.752484 2.5845625 16.126812 2.5136719 16.507812 2.5136719 z M 10.398438 9.2578125 C 9.927625 9.2866406 9.5136719 9.6730156 9.5136719 10.197266 L 9.5136719 13.802734 C 9.5136719 14.527734 10.300734 14.980234 10.927734 14.615234 L 14.255859 12.673828 C 14.901859 12.297828 14.871125 11.355484 14.203125 11.021484 L 10.875 9.3574219 C 10.7185 9.2794219 10.555375 9.2482031 10.398438 9.2578125 z"/></svg>